<svg id="Layer_1" data-name="Layer 1" xmlns="http://www.w3.org/2000/svg" viewBox="0 0 154.77 154.77"><defs><style>.cls-1{fill:#24d692;}</style></defs><path class="cls-1" d="M152.73,34.88a36,36,0,0,0-.54-6.72c-3-15.54-15.58-25.94-31.46-26q-43.54,0-87.09,0a28.69,28.69,0,0,0-4.82.26c-16.32,2.72-27,15.2-27,31.72,0,11,0,21.89,0,32.84,0,11.1,0,22.21,0,33.31.1,18.28,13.75,31.81,32.05,31.81q26,0,52,0a6.67,6.67,0,0,1,4.22,1.32c7.51,5.44,15.09,10.76,22.59,16.19,2.78,2,5.71,2.74,8.83,1.25s4.55-4.37,4.44-7.91c-.06-2,0-4,0-6,0-4.23,0-4.23,4.16-5,13.89-2.63,22.62-13.35,22.65-28Q152.8,69.41,152.73,34.88ZM96.17,83.49a33.56,33.56,0,0,1-7.66,11.36,34.81,34.81,0,0,1-11.65,7.42,40,40,0,0,1-14.73,2.64,39.43,39.43,0,0,1-14.59-2.64A34.37,34.37,0,0,1,36,94.85a34,34,0,0,1-7.61-11.36A37.62,37.62,0,0,1,25.64,68.9a38.16,38.16,0,0,1,2.74-14.78A32.51,32.51,0,0,1,36,42.91a33.55,33.55,0,0,1,11.55-7.13,41.31,41.31,0,0,1,14.59-2.5,41.94,41.94,0,0,1,14.73,2.5,34,34,0,0,1,11.65,7.13,32.09,32.09,0,0,1,7.66,11.21A38.16,38.16,0,0,1,98.91,68.9,37.62,37.62,0,0,1,96.17,83.49Zm21.65,17.77a7.78,7.78,0,0,1-8.38,1.63,8.21,8.21,0,0,1-2.45-1.54A7.12,7.12,0,0,1,105.3,99a6.74,6.74,0,0,1-.63-2.89,7.14,7.14,0,0,1,2.27-5.29,7.47,7.47,0,0,1,5.44-2.22,7.74,7.74,0,0,1,5.39,2.12,6.79,6.79,0,0,1,2.31,5.2A7.16,7.16,0,0,1,117.82,101.26Z"/><path class="cls-1" d="M79.27,51.19a22.17,22.17,0,0,0-7.42-5.3A23.44,23.44,0,0,0,62.23,44a23.2,23.2,0,0,0-9.59,1.92,22.23,22.23,0,0,0-7.36,5.3,23.78,23.78,0,0,0-4.77,7.89,28,28,0,0,0-1.68,9.82A28.93,28.93,0,0,0,40.51,79a23.38,23.38,0,0,0,4.82,8,22.08,22.08,0,0,0,7.41,5.25A23.43,23.43,0,0,0,62.23,94a23.76,23.76,0,0,0,9.53-1.87,22.08,22.08,0,0,0,7.46-5.25A23.54,23.54,0,0,0,84,79,28.93,28.93,0,0,0,85.72,68.9,28,28,0,0,0,84,59.08,24.11,24.11,0,0,0,79.27,51.19Z"/></svg>